# xmcd CD database file
#
# Track frame offsets:
#	150
#	47332
#	98695
#	122117
#	172412
#	232405
#
# Disc length: 3819 seconds
#
# Revision: 0
# Processed by: cddbd v1.5.1PL0 Copyright (c) Steve Scherf et al.
# Submitted via: CDex 1.51
#
DISCID=500ee906
DTITLE=Earthaven - Sounds of the Wilderness - Nightscapes - Midnight Sounds from the Wild
DYEAR=2000
DGENRE=New Age
TTITLE0=Murray Marsh Overture
TTITLE1=Murray Marsh Epilogue
TTITLE2=Massasauga Marsh
TTITLE3=Midnight on Spider Lake
TTITLE4=At the Herb Road Marsh
TTITLE5=By the Little Mississippi River
EXTD=YEAR: 2000
EXTT0=
EXTT1=
EXTT2=
EXTT3=
EXTT4=
EXTT5=
PLAYORDER=
